HIERARCHY
ROOT Hips
{
	OFFSET 0.00000 0.00000 0.00000
	CHANNELS 6 Xposition Yposition Zposition Yrotation Zrotation Xrotation 
	JOINT Lumbar
	{
		OFFSET 0 0 0
		CHANNELS 3 Zrotation Xrotation Yrotation
		JOINT Neck
		{
			OFFSET 0.00 0.2701 0.00
			CHANNELS 3 Zrotation Xrotation Yrotation
			End Site
			{
				OFFSET 0.00 0.1379 0.00
			}
		}
		JOINT RightShoulder
		{
			OFFSET 0.0119 0.2289 0.1181
			CHANNELS 3 Zrotation Xrotation Yrotation
			JOINT RightElbow
			{
				OFFSET 0.00 -0.1475 0.00
				CHANNELS 2 Zrotation Yrotation
				JOINT RightWrist
				{
					OFFSET 0.00 -0.1605 0.00
					CHANNELS 2 Zrotation Xrotation
					End Site
					{
						OFFSET 0.0040 -0.1068 0.0006
					}
				}
			}
		}
		JOINT LeftShoulder
		{
			OFFSET 0.0119 0.2289 -0.1181
			CHANNELS 3 Zrotation Xrotation Yrotation
			JOINT LeftElbow
			{
				OFFSET 0.00 -0.1475 0.00
				CHANNELS 2 Zrotation Yrotation
				JOINT LeftWrist
				{
					OFFSET 0.00 -0.1605 0.00
					CHANNELS 2 Zrotation Xrotation
					End Site
					{
						OFFSET 0.0040 -0.1068 -0.0006
					}
				}
			}
		}
	}
	JOINT RightHip
	{
		OFFSET 0.0316 -0.0424 0.0458
		CHANNELS 3 Zrotation Xrotation Yrotation
		JOINT RightKnee
		{
			OFFSET 0.00 -0.2438 0.00
			CHANNELS 1 Zrotation
			JOINT RightAnkle
			{
				OFFSET 0.00 -0.2449 0.00
				CHANNELS 3 Zrotation Xrotation Yrotation
				End Site
				{
					OFFSET 0.1237 -0.0542 0.0051
				}
			}
		}
	}
	JOINT LeftHip
	{
		OFFSET 0.0316 -0.0424 -0.0458
		CHANNELS 3 Zrotation Xrotation Yrotation
		JOINT LeftKnee
		{
			OFFSET 0.00 -0.2438 0.00
			CHANNELS 1 Zrotation
			JOINT LeftAnkle
			{
				OFFSET 0.00 -0.2449 0.00
				CHANNELS 3 Zrotation Xrotation Yrotation
				End Site
				{
					OFFSET 0.1237 -0.0542 -0.0051
				}
			}
		}
	}
}
MOTION
Frames: 17
Frame Time: 0.02
0.39777 0.4118 0.10454 893.9835 0 4.58077 -9.91696 -3.23491 0.99092 -6.73324 3.99661 -1.12714 1.956 -27.49887 -2.49538 116.14738 49.25474 -28.57546 2.04124 -2.65538 12.0471 -5.18653 94.68288 -57.61238 -39.37946 0.2541 68.39268 -0.2983 -3.93924 -79.35763 10.27579 -3.83283 -3.07454 66.6012 -1.64272 10.42712 -75.95118 10.71741 6.42696 7.0559
0.39786 0.41164 0.10445 893.92671 0 4.64985 -9.25418 -3.28706 0.83982 -7.79658 3.63321 -0.84355 2.29488 -26.58429 -2.29393 115.56727 50.99059 -28.3939 1.74025 -1.81178 12.23026 -5.04539 94.52612 -57.36719 -39.35961 0.22347 68.45988 -0.21137 -3.72716 -79.47328 10.49518 -3.40811 -2.47592 66.61072 -1.60109 10.46838 -75.92513 10.48222 6.06771 6.60822
0.39791 0.41149 0.10435 893.85806 0 4.72307 -8.61737 -3.34847 0.5956 -8.98479 3.23535 -0.43912 2.83938 -25.67393 -2.07537 114.97406 52.9531 -28.25571 1.39819 -0.8245 12.45206 -4.94605 94.37038 -57.07535 -39.33572 0.18564 68.53127 -0.09415 -3.48139 -79.57842 10.59376 -2.87541 -1.79465 66.61762 -1.56517 10.50004 -75.87658 10.11332 5.65191 6.19088
0.39798 0.41132 0.10425 893.79806 0 4.79248 -7.97416 -3.40354 0.40572 -10.10591 2.85412 -0.10341 3.28482 -24.75894 -1.87756 114.38982 54.78434 -28.10269 1.08097 0.0924 12.65809 -4.83094 94.21192 -56.80679 -39.31275 0.15143 68.60078 0.00458 -3.25934 -79.68266 10.71719 -2.40719 -1.16959 66.62723 -1.52958 10.53506 -75.83389 9.78212 5.26634 5.77336
0.39803 0.41117 0.10415 893.72465 0 4.87037 -7.30853 -3.46781 0.16672 -11.27725 2.467 0.28885 3.76281 -23.85322 -1.62141 113.79261 56.74959 -27.9248 0.73816 1.0373 12.85854 -4.70233 94.06235 -56.52935 -39.29359 0.11588 68.67013 0.12284 -3.0012 -79.81082 10.96468 -1.87239 -0.46297 66.62971 -1.48139 10.57542 -75.80635 9.5355 4.85497 5.29358
0.39812 0.411 0.10406 893.67607 0 4.93134 -6.69628 -3.51493 0.00686 -12.36985 2.08526 0.59323 4.21805 -22.93156 -1.48419 113.21957 58.48271 -27.80961 0.43899 1.95438 13.07813 -4.61193 93.89478 -56.2593 -39.26601 0.08133 68.74079 0.20819 -2.81047 -79.88672 10.92785 -1.45141 0.09112 66.64671 -1.46117 10.60154 -75.74367 9.08891 4.48715 4.9532
0.3983 0.41079 0.10401 893.70094 0 4.94574 -6.21717 -3.51377 0.0937 -13.22975 1.71963 0.6184 4.56493 -21.94669 -1.67809 112.71452 59.53352 -27.87002 0.26689 2.77261 13.35227 -4.61437 93.67706 -56.02198 -39.21009 0.05166 68.81452 0.1902 -2.81364 -79.8203 10.11462 -1.36862 0.21837 66.70433 -1.51348 10.59561 -75.58316 8.085 4.24513 4.98189
0.39853 0.41057 0.10397 893.75081 0 4.94271 -5.79231 -3.49481 0.26217 -14.0023 1.36235 0.55239 4.87968 -20.94946 -1.99287 112.23475 60.33815 -27.99047 0.14068 3.55435 13.64204 -4.65428 93.44139 -55.79373 -39.14668 0.02318 68.8893 0.13912 -2.88582 -79.70177 9.0237 -1.40472 0.18628 66.77673 -1.5943 10.57461 -75.38962 6.89283 4.05124 5.15171
0.39873 0.41035 0.10394 893.78791 0 4.94686 -5.34747 -3.48302 0.38967 -14.80438 1.00576 0.53284 5.20492 -19.96941 -2.25397 111.74454 61.24457 -28.07552 -0.0044 4.34382 13.91736 -4.67855 93.21403 -55.56052 -39.09091 -0.00613 68.96337 0.1063 -2.92706 -79.60751 8.07333 -1.38826 0.21743 66.84259 -1.66431 10.55724 -75.21575 5.81296 3.84168 5.26333
0.39893 0.41014 0.10388 893.83052 0 4.95428 -4.88334 -3.47519 0.5306 -15.65474 0.62796 0.49628 5.5551 -18.93919 -2.50976 111.24894 62.20257 -28.19581 -0.15935 5.17712 14.22549 -4.69825 92.98571 -55.32848 -39.01806 -0.03457 69.03878 0.06031 -2.9661 -79.51044 7.05697 -1.36193 0.29041 66.90779 -1.72565 10.55333 -75.02145 4.61532 3.60409 5.3519
0.39916 0.40992 0.10386 893.86776 0 4.95068 -4.47256 -3.45505 0.66375 -16.38099 0.29809 0.47191 5.84267 -18.01235 -2.80473 110.77139 62.99061 -28.25695 -0.28223 5.90689 14.46796 -4.73604 92.75557 -55.09769 -38.97786 -0.06434 69.11134 0.03427 -3.0256 -79.40695 6.11518 -1.38565 0.23711 66.9777 -1.81147 10.51768 -74.86206 3.62007 3.43677 5.52035
0.39947 0.4097 0.10397 893.88411 0 4.92108 -4.19037 -3.403 0.75925 -16.79487 0.08756 0.50303 5.9667 -17.35844 -3.18547 110.33229 63.37623 -28.1354 -0.32823 6.37298 14.52934 -4.8124 92.52083 -54.8605 -39.04005 -0.09896 69.17772 0.06468 -3.13324 -79.29886 5.43528 -1.52033 -0.12462 67.05869 -1.96026 10.40071 -74.80844 3.23084 3.45482 5.88579
0.39981 0.4095 0.10411 893.89424 0 4.88094 -3.96094 -3.33958 0.84381 -17.08449 -0.0728 0.549 6.02753 -16.81206 -3.60014 109.91171 63.59655 -27.95289 -0.34319 6.73291 14.52312 -4.90576 92.28563 -54.62599 -39.13355 -0.13473 69.24078 0.11729 -3.25789 -79.18617 4.84297 -1.70151 -0.60865 67.14359 -2.13208 10.25214 -74.79104 3.0524 3.54166 6.32449
0.40013 0.40929 0.10424 893.90721 0 4.84546 -3.71071 -3.28279 0.93138 -17.42451 -0.24875 0.58791 6.1152 -16.22636 -3.99482 109.48588 63.88737 -27.80114 -0.37195 7.13201 14.54498 -4.99274 92.05325 -54.39537 -39.20579 -0.16936 69.30405 0.1642 -3.36907 -79.07531 4.2189 -1.86068 -1.03787 67.22564 -2.29198 10.11606 -74.75628 2.77728 3.59524 6.72246
0.40046 0.40906 0.10438 893.92096 0 4.80986 -3.44873 -3.21909 1.03016 -17.78734 -0.45488 0.62522 6.20962 -15.59913 -4.41342 109.04679 64.19057 -27.63863 -0.40071 7.56829 14.5786 -5.07589 91.80923 -54.14313 -39.30703 -0.20664 69.37292 0.19203 -3.506 -78.96344 3.55066 -2.02747 -1.4691 67.31282 -2.45963 9.9863 -74.72394 2.49874 3.65883 7.15714
0.40078 0.40888 0.10449 893.93132 0 4.77234 -3.22334 -3.16745 1.10176 -18.07408 -0.58634 0.67034 6.2756 -15.08512 -4.78817 108.64035 64.43025 -27.48322 -0.42234 7.90234 14.57141 -5.16989 91.58958 -53.93687 -39.35594 -0.2386 69.42923 0.26456 -3.59352 -78.85363 2.99942 -2.18812 -1.92342 67.38991 -2.61549 9.83736 -74.69586 2.28046 3.71735 7.53044
0.40105 0.4088 0.10451 893.93339 0 4.7312 -3.08335 -3.15087 1.10258 -18.18277 -0.52377 0.7354 6.27635 -14.8488 -5.03709 108.31132 64.54988 -27.36269 -0.43492 7.98011 14.46865 -5.29525 91.43748 -53.85315 -39.24813 -0.25635 69.45237 0.46138 -3.53079 -78.74769 2.747 -2.31794 -2.40746 67.43955 -2.73924 9.63213 -74.66875 2.17325 3.7444 7.71965
